# xmcd
#
# Track frame offsets: 
#        150
#        20662
#        38265
#        54233
#        80853
#        96372
#        114562
#        132814
#        146708
#        159347
#        175384
#
# Disc length: 2590 seconds
#
# Revision: 0
# Processed by: cddbd v1.5PL3 Copyright (c) Steve Scherf et al.
# Submitted via: ExactAudioCopy v0.95a3
#
DISCID=8d0a1c0b
DTITLE=Various Artist - IT'S VALENTINE
DYEAR=1991
DGENRE=
TTITLE0=FREEDOM OF THE HEART
TTITLE1=DANIEL
TTITLE2=HAVE YOU NEVER BEEN MELLOW
TTITLE3=SILLY LOVE SONG
TTITLE4=THEME FROM MAHOGANY
TTITLE5=HOW DEEP IS YOUR LOVE
TTITLE6=YOUR SONG
TTITLE7=IMAGINE
TTITLE8=LOVE ME TENDER
TTITLE9=THE WAY WE WERE
TTITLE10=WE'RE ALL ALONE
EXTD=
EXTT0=
EXTT1=
EXTT2=
EXTT3=
EXTT4=
EXTT5=
EXTT6=
EXTT7=
EXTT8=
EXTT9=
EXTT10=
PLAYORDER=
